<svg width="1024" height="1024" viewBox="0 0 1024 1024" fill="none" xmlns="http://www.w3.org/2000/svg">
<g clip-path="url(#clip0_9_3)">
<path d="M687.8 302.8H613.4V518H695C731.8 518 759.8 508.133 779 488.4C798.733 468.133 808.6 442.267 808.6 410.8C808.6 338.8 768.333 302.8 687.8 302.8ZM691 573.2H613.4V786H548.6V246.8H683.8C746.2 246.8 793.4 261.467 825.4 290.8C857.933 320.133 874.2 360.667 874.2 412.4C873.133 449.733 863.267 481.467 844.6 507.6C825.933 533.733 799.533 552.133 765.4 562.8L907 786H829.4L697.4 573.2H691Z" fill="#8DA5E2" fill-opacity="0.88"/>
<path d="M272 253.8H211.2V405.8H269.6C322.933 405.8 349.6 379.667 349.6 327.4C349.6 304.467 342.667 286.6 328.8 273.8C314.933 260.467 296 253.8 272 253.8ZM211.2 693H88V153.8H274.4C334.667 153.8 382.933 169.8 419.2 201.8C456 233.8 474.4 275.4 474.4 326.6C474.4 403.4 441.6 456.467 376 485.8L512.8 693H365.6L248.8 505.8H211.2V693Z" fill="#E59F71"/>
</g>
<defs>
<clipPath id="clip0_9_3">
<rect width="1024" height="1024" fill="white"/>
</clipPath>
</defs>
</svg>
